<?xml version="1.0" standalone="no"?>
<!DOCTYPE svg PUBLIC "-//W3C//DTD SVG 20010904//EN"
 "http://www.w3.org/TR/2001/REC-SVG-20010904/DTD/svg10.dtd">
<svg version="1.0" xmlns="http://www.w3.org/2000/svg"
 width="260.000000pt" height="260.000000pt" viewBox="0 0 260.000000 260.000000"
 preserveAspectRatio="xMidYMid meet">
<metadata>
Created by potrace 1.14, written by Peter Selinger 2001-2017
</metadata>
<g transform="translate(0.000000,260.000000) scale(0.100000,-0.100000)"
fill="#000000" stroke="none">
<path d="M70 2587 c0 -8 -9 -24 -20 -37 -11 -13 -20 -37 -20 -57 0 -23 -5 -33
-15 -33 -13 0 -15 -73 -15 -595 0 -505 2 -595 14 -595 9 0 16 -17 21 -50 4
-27 11 -50 16 -50 5 0 11 -11 15 -25 3 -14 12 -25 20 -25 8 0 14 -4 14 -10 0
-5 6 -10 14 -10 9 0 15 -21 20 -72 4 -40 10 -75 15 -78 4 -3 11 -34 15 -70 4
-36 14 -84 22 -108 18 -55 18 -125 -1 -162 -9 -17 -11 -31 -5 -35 21 -13 -21
-70 -66 -90 -41 -18 -44 -22 -44 -60 0 -56 -11 -116 -20 -110 -4 3 -11 -11
-14 -30 -4 -21 -13 -35 -21 -35 -12 0 -15 -22 -15 -125 0 -101 3 -125 14 -125
18 0 30 84 17 126 -5 20 -5 37 2 49 17 32 34 -6 29 -65 -4 -46 -2 -52 17 -57
14 -3 21 -13 21 -29 l0 -24 1250 0 1250 0 0 74 0 75 -58 11 c-31 7 -66 16 -77
20 -11 5 -37 11 -58 15 -22 3 -51 18 -68 35 -17 15 -61 43 -99 62 -38 18 -73
41 -77 52 -12 24 4 172 23 213 8 17 14 38 14 46 0 8 6 20 14 26 8 7 18 26 21
42 4 16 11 27 16 23 5 -3 9 5 9 18 0 13 9 37 20 53 11 17 20 38 20 48 0 9 6
17 14 17 7 0 45 16 85 36 49 24 71 41 71 54 0 10 7 20 15 24 8 3 15 15 15 26
0 11 -7 23 -15 26 -8 4 -15 15 -15 25 0 13 -16 26 -50 41 -45 21 -50 26 -50
56 0 22 5 32 15 32 8 0 15 5 15 10 0 6 7 10 15 10 8 0 15 4 15 9 0 5 7 16 15
24 8 9 17 41 20 73 3 37 10 61 20 67 10 5 15 24 15 58 0 29 6 56 13 64 8 7 17
46 20 86 3 40 10 75 15 78 13 8 25 67 18 89 -3 10 -17 19 -31 20 -44 3 -91 72
-50 72 11 0 15 11 15 40 0 29 4 40 15 40 8 0 15 5 15 10 0 6 7 10 15 10 8 0
15 5 15 10 0 6 9 10 20 10 19 0 20 7 20 95 0 75 -3 95 -14 95 -8 0 -16 7 -20
15 -3 8 -12 15 -21 15 -12 0 -15 13 -15 65 0 49 -4 67 -15 71 -11 5 -15 22
-15 69 0 41 -5 67 -14 74 -7 6 -16 29 -19 51 -3 22 -12 47 -21 55 -9 9 -16 21
-16 26 0 40 22 39 -1194 39 -971 0 -1166 -2 -1166 -13z m1428 -238 c2 -5 9 -9
15 -9 6 0 21 -12 34 -26 19 -23 20 -28 8 -40 -8 -8 -18 -14 -22 -13 -34 6 -93
-3 -93 -14 0 -7 -15 -21 -33 -30 -28 -15 -45 -17 -98 -11 -35 5 -68 7 -73 6
-4 -2 -6 8 -2 22 5 19 1 26 -13 31 -10 3 -26 14 -36 25 -16 18 -16 20 5 47 12
15 25 27 28 26 13 -5 42 8 42 19 0 5 6 8 13 5 8 -3 29 -2 48 2 36 8 171 -22
177 -40z m-381 -71 c-3 -8 -6 -5 -6 6 -1 11 2 17 5 13 3 -3 4 -12 1 -19z m103
-57 c0 -4 -7 -8 -15 -8 -8 0 -15 6 -15 13 0 8 6 11 15 8 8 -4 15 -9 15 -13z
m577 -427 c9 -23 -9 -34 -41 -26 -27 7 -28 9 -12 25 22 21 45 22 53 1z m-897
-19 c0 -8 -7 -15 -15 -15 -8 0 -15 7 -15 15 0 8 7 15 15 15 8 0 15 -7 15 -15z
m460 -89 c0 -29 -3 -34 -20 -31 -19 4 -20 -2 -20 -71 0 -41 -4 -73 -8 -70 -4
2 -7 42 -6 88 3 104 4 107 14 83 5 -11 9 -14 9 -7 1 11 21 40 29 42 1 0 2 -15
2 -34z m29 -98 c3 1 7 -33 9 -75 2 -53 7 -80 17 -85 7 -5 16 -26 20 -48 4 -22
10 -40 14 -40 5 0 11 -28 14 -61 3 -35 11 -65 19 -70 10 -7 10 -9 1 -9 -7 0
-13 -6 -13 -14 0 -19 -57 -27 -138 -22 -52 4 -68 10 -87 31 -13 14 -29 25 -35
25 -5 0 -10 7 -10 15 0 8 -7 15 -16 15 -8 0 -12 5 -9 10 3 6 1 10 -5 10 -6 0
-8 5 -5 11 4 6 13 8 21 5 8 -3 14 0 14 7 0 7 13 18 29 25 20 9 32 23 36 43 4
16 13 29 21 29 9 0 14 11 14 31 0 24 4 30 15 25 13 -4 15 8 15 78 0 45 3 86 7
89 3 4 15 -1 26 -10 10 -10 22 -17 26 -15z m-672 -300 c-3 -8 -6 -5 -6 6 -1
11 2 17 5 13 3 -3 4 -12 1 -19z m35 -5 c2 -16 9 -28 16 -28 23 0 12 -20 -15
-27 -27 -7 -49 1 -25 9 9 3 11 16 6 39 -4 21 -2 34 4 34 6 0 12 -12 14 -27z
m658 -749 c25 3 62 8 83 12 37 6 37 6 36 -27 0 -26 -9 -41 -32 -61 -29 -23
-44 -27 -145 -33 -98 -7 -112 -6 -118 9 -3 9 -12 16 -20 16 -8 0 -14 7 -14 15
0 8 -7 15 -16 15 -11 0 -13 6 -9 19 4 15 0 21 -17 24 -15 3 -11 5 12 5 19 0
53 4 75 9 23 5 57 5 80 0 22 -4 60 -6 85 -3z"/>
</g>
</svg>
